<?xml version="1.0" encoding="UTF-8" standalone="no"?>
<!-- Created with Inkscape (http://www.inkscape.org/) -->

<svg
   xmlns:dc="http://purl.org/dc/elements/1.1/"
   xmlns:cc="http://creativecommons.org/ns#"
   xmlns:rdf="http://www.w3.org/1999/02/22-rdf-syntax-ns#"
   xmlns:svg="http://www.w3.org/2000/svg"
   xmlns="http://www.w3.org/2000/svg"
   xmlns:sodipodi="http://sodipodi.sourceforge.net/DTD/sodipodi-0.dtd"
   xmlns:inkscape="http://www.inkscape.org/namespaces/inkscape"
   width="158.75mm"
   height="158.75mm"
   viewBox="0 0 158.75 158.75"
   version="1.1"
   id="svg8"
   inkscape:version="0.92.4 (5da689c313, 2019-01-14)"
   sodipodi:docname="team trees circle logo.svg">
  <defs
     id="defs2" />
  <sodipodi:namedview
     id="base"
     pagecolor="#ffffff"
     bordercolor="#666666"
     borderopacity="1.0"
     inkscape:pageopacity="0.0"
     inkscape:pageshadow="2"
     inkscape:zoom="0.49497475"
     inkscape:cx="369.44045"
     inkscape:cy="149.8551"
     inkscape:document-units="mm"
     inkscape:current-layer="layer1"
     showgrid="false"
     inkscape:window-width="1920"
     inkscape:window-height="1017"
     inkscape:window-x="-8"
     inkscape:window-y="176"
     inkscape:window-maximized="1" />
  <metadata
     id="metadata5">
    <rdf:RDF>
      <cc:Work
         rdf:about="">
        <dc:format>image/svg+xml</dc:format>
        <dc:type
           rdf:resource="http://purl.org/dc/dcmitype/StillImage" />
        <dc:title></dc:title>
      </cc:Work>
    </rdf:RDF>
  </metadata>
  <g
     inkscape:groupmode="layer"
     id="layer2"
     inkscape:label="Layer 2"
     style="display:inline"
     transform="translate(0,-158.75)">
    <path
       style="fill:#8ab73f;fill-opacity:1;fill-rule:nonzero;stroke:none;stroke-width:0;stroke-miterlimit:4;stroke-dasharray:none;stroke-opacity:1"
       id="path977"
       sodipodi:type="arc"
       sodipodi:cx="79.375"
       sodipodi:cy="238.125"
       sodipodi:rx="79.375"
       sodipodi:ry="79.375"
       sodipodi:start="2.6703538"
       sodipodi:end="0.4712389"
       d="m 8.6513555,274.16049 a 79.375,79.375 0 0 1 20.7713405,-97.72145 79.375,79.375 0 0 1 99.904614,0 79.375,79.375 0 0 1 20.77133,97.72146"
       sodipodi:open="true" />
    <path
       style="fill:#ffffff;fill-opacity:1;fill-rule:nonzero;stroke:none;stroke-width:0;stroke-miterlimit:4;stroke-dasharray:none;stroke-opacity:1"
       id="path987"
       sodipodi:type="arc"
       sodipodi:cx="79.375"
       sodipodi:cy="238.125"
       sodipodi:rx="79.375"
       sodipodi:ry="79.375"
       sodipodi:start="0.4712389"
       sodipodi:end="2.6703538"
       d="M 150.09864,274.1605 A 79.375,79.375 0 0 1 79.374998,317.5 79.375,79.375 0 0 1 8.6513555,274.16049"
       sodipodi:open="true" />
  </g>
  <g
     inkscape:label="Layer 1"
     inkscape:groupmode="layer"
     id="layer1"
     transform="translate(-36.285713,-241.81548)"
     style="display:inline">
    <g
       id="g964"
       transform="matrix(2.4090977,0,0,2.4090977,-423.14474,329.78601)">
      <path
         id="path832"
         d="m 228.5215,-21.603484 c -1.27,0 -12.8852,40.375416 -11.69458,41.751249 1.19063,1.402292 5.95313,3.227917 11.50938,3.227917 5.55625,0 10.4775,-2.645833 10.87437,-3.704167 0.39688,-1.058333 -8.73125,-41.274999 -10.68917,-41.274999 z"
         class="st2"
         inkscape:connector-curvature="0"
         style="fill:#263754;stroke-width:0.26458332" />
      <path
         id="path834"
         d="m 233.15171,10.675683 -0.37041,-0.370417 -4.2598,4.233333 V -8.6389008 h -0.5027 V 7.2890158 l -4.23334,-4.2597916 -0.37041,0.3704167 4.60375,4.6037499 v 2.4606252 l -4.23334,-4.2597918 -0.37041,0.3704166 4.60375,4.6037502 V 29.11714 h 0.5027 V 15.279432 Z"
         class="st0"
         inkscape:connector-curvature="0"
         style="fill:#8ab73f;stroke-width:0.26458332" />
    </g>
    <g
       id="g972"
       transform="matrix(2.3541564,0,0,2.3541564,-386.70827,339.81096)">
      <path
         id="path836"
         d="m 204.71278,-5.5924126 c -0.76729,0 -7.69937,24.0770826 -6.985,24.9237496 0.71438,0.820208 3.54542,1.931458 6.87917,1.931458 3.30729,0 6.24416,-1.5875 6.50875,-2.2225 0.21166,-0.635 -5.23875,-24.6327076 -6.40292,-24.6327076 z"
         class="st2"
         inkscape:connector-curvature="0"
         style="fill:#263754;stroke-width:0.26458332" />
      <path
         id="path968"
         d="m 207.46445,13.669254 -0.21167,-0.211667 -2.54,2.513542 V 2.1334206 h -0.29104 v 9.4985414 l -2.54,-2.5135414 -0.21167,0.2116666 2.75167,2.7516668 v 1.455208 l -2.54,-2.54 -0.21167,0.238125 2.75167,2.751667 V 24.67592 h 0.29104 v -8.255 z"
         style="fill:#8ab73f;stroke-width:0.26458332"
         inkscape:connector-curvature="0" />
    </g>
    <path
       id="path921-1"
       style="fill:#273755;fill-opacity:1;stroke-width:0.25955087"
       d="m 170.02729,311.63216 -4.28821,1.33169 -4.01047,-12.91421 15.31859,-4.75713 3.97197,12.79029 -4.28822,1.33169 -2.47862,-7.98154 -1.46246,0.45416 1.56261,5.03184 -3.76767,1.17004 -1.56262,-5.03185 -1.51203,0.46955 z m -2.20192,3.68905 4.11835,2.17026 c -1.42456,1.67284 -2.0248,3.57721 -2.08989,5.83459 -0.0419,1.45303 0.0891,2.31377 0.76373,2.33322 0.49298,0.0143 0.63768,-0.50099 1.12839,-3.10966 0.67258,-3.51233 1.28278,-6.66288 5.07103,-6.55366 3.60664,0.10397 5.5956,3.17368 5.47515,7.35113 -0.10995,3.8142 -1.8127,6.12824 -3.94134,7.00174 l -1.8827,-4.05343 c 1.20629,-0.40669 1.5054,-1.7744 1.54505,-3.14958 0.0494,-1.7125 -0.38051,-2.11442 -0.87349,-2.12862 -0.46705,-0.0133 -0.66289,0.47427 -1.12765,3.08369 -0.61844,3.43598 -1.46517,6.68359 -5.25342,6.57436 -3.68446,-0.10624 -5.38278,-3.34931 -5.25187,-7.89002 0.0853,-2.95795 0.88138,-5.35006 2.31866,-7.46402 z m -3.98596,-20.99228 -3.59976,2.684 -8.08303,-10.8409 12.85928,-9.58793 8.00545,10.73689 -3.59977,2.68399 -4.99564,-6.70015 -1.22767,0.91536 3.14943,4.224 -3.16279,2.3582 -3.14944,-4.22401 -1.26928,0.94637 z m -17.70304,-32.43925 -8.77543,13.38179 4.20079,2.75478 2.52764,-3.85444 1.86207,1.22112 0.006,5.51566 4.39577,2.88261 0.12784,-0.19495 -0.15583,-6.32599 c 1.88952,0.0938 3.70732,-0.78943 4.90008,-2.60829 1.87432,-2.85822 1.04511,-6.1269 -1.83476,-8.01544 z m 1.80102,6.41423 2.42496,1.59023 c 0.86614,0.56799 1.07357,1.38512 0.59078,2.12133 -0.48278,0.7362 -1.29324,0.88584 -2.181,0.30366 l -2.42498,-1.59024 z m -10.56121,-5.4443 -4.70142,-1.11978 -2.66929,11.20716 -4.93013,-1.17425 2.6693,-11.20717 -4.70142,-1.11976 1.07135,-4.4981 14.33296,3.41378 z m -23.10849,-8.46745 2.21912,15.89775 -1.82643,0.25495 -1.78463,-12.78508 -4.95125,9.05714 -0.23152,0.0324 -7.2679,-7.3515 1.78463,12.78509 -1.82643,0.25493 -2.219128,-15.89775 1.646395,-0.22981 7.634023,7.72001 5.25395,-9.519 z m -33.567218,10.50791 1.832215,17.51824 0.08109,0.13402 1.62633,-0.98382 -0.46134,-4.13414 7.99932,-4.83909 3.447205,2.3279 1.62674,-0.98407 -0.08109,-0.13407 -14.644325,-9.76769 z m 1.82759,1.51179 7.59784,5.113 -6.59537,3.98978 z m -3.407735,17.04276 1.367855,1.09083 -7.699945,9.65538 -12.431312,-9.91369 7.619742,-9.55481 1.347725,1.07478 -6.480793,8.12662 4.163886,3.32061 4.170817,-5.23001 1.347735,1.07479 -4.170815,5.23001 4.204105,3.35268 z m -22.161526,9.8799 -2.057423,5.98724 13.465144,4.6271 -0.596242,1.73507 -13.465135,-4.62711 -2.049027,5.96281 -1.637323,-0.56267 4.702684,-13.68507 z m -7.53964,32.14992 4.565823,0.67329 0.104546,3.3858 1.452424,0.24403 -0.105353,-3.41194 4.275092,0.62995 0.104546,3.38579 1.426275,0.24483 -0.106159,-3.43807 4.591972,0.6725 -0.04618,-1.4958 -4.591988,-0.67301 -0.144242,-4.67142 4.591972,0.6725 -0.04619,-1.49579 -4.591987,-0.67302 -0.108584,-3.51652 -1.42629,-0.24533 0.110228,3.56981 -4.275093,-0.62995 -0.109404,-3.54316 -1.452425,-0.24403 0.110213,3.56931 -4.565824,-0.6733 0.04619,1.49579 4.565823,0.67331 0.14426,4.67192 -4.565825,-0.67329 z m 5.972103,-0.57804 -0.144258,-4.67193 4.275092,0.62994 0.144258,4.67194 z" />
  </g>
  <style
     id="style826">.st0{fill:#8ab73f}.st1{fill:#273755}.st2{fill:#263754}</style>
</svg>
